<svg width="512" height="512" viewBox="0 0 512 512" fill="none" xmlns="http://www.w3.org/2000/svg">
<rect width="512" height="512" fill="#0C0C14"/>
<path d="M36.7698 302.201C33.6437 287.292 32 271.838 32 256C32 132.288 132.288 32 256 32C335.942 32 406.103 73.8773 445.743 136.891L367.588 208.299L331.531 153.471L192.408 273.439L145.55 210.13L36.7698 302.201Z" fill="#009480"/>
<path d="M256 480C379.712 480 480 379.712 480 256C480 230.08 475.597 205.188 467.499 182.031L358.412 281.701L321.469 225.529L184.592 343.561L137.45 279.87L53.1774 351.198C88.9631 427.309 166.328 480 256 480Z" fill="#E63973"/>
</svg>
