<svg width="512" height="512" viewBox="0 0 512 512" fill="none" xmlns="http://www.w3.org/2000/svg">
<g clip-path="url(#clip0_7_67)">
<path d="M512 255.998L436.941 330.955L437.057 437.043H330.957L256 512L181.043 437.052H74.9567V331.057L0 256.109L74.9567 181.05L74.8545 75.0598H180.941L255.898 0L330.854 74.9575L436.936 74.9528V181.04L512 255.998ZM388.952 311.072C419.245 237.676 384.369 153.447 310.974 123.06C254.859 99.8446 190.211 114.42 149.389 159.279C181.151 138.769 221.023 135.232 255.89 149.7C314.608 173.956 342.507 241.315 318.251 300.031C293.888 358.75 226.521 386.65 167.814 362.393C161.359 359.675 155.219 356.458 149.377 352.703C163.64 368.436 181.246 380.812 200.909 388.931C274.313 419.345 358.545 384.47 388.944 311.073L388.952 311.072Z" fill="#2C2331"/>
</g>
<defs>
<clipPath id="clip0_7_67">
<rect width="512" height="512" fill="white"/>
</clipPath>
</defs>
</svg>
