<svg width="64" height="64" viewBox="0 0 64 64" fill="none" xmlns="http://www.w3.org/2000/svg">
<path d="M56 38C56 36.8954 55.1046 36 54 36H38C36.8954 36 36 36.8954 36 38V54C36 55.1046 36.8954 56 38 56H42C43.1046 56 44 55.1046 44 54V44H54C55.1046 44 56 43.1046 56 42V38Z" fill="white"/>
<path d="M26 56C27.1046 56 28 55.1046 28 54V38C28 36.8954 27.1046 36 26 36H10C8.89543 36 8 36.8954 8 38V42C8 43.1046 8.89543 44 10 44H20V54C20 55.1046 20.8954 56 22 56H26Z" fill="white"/>
<path d="M8 26C8 27.1046 8.89543 28 10 28H26C27.1046 28 28 27.1046 28 26V10C28 8.89543 27.1046 8 26 8H22C20.8954 8 20 8.89543 20 10V20H10C8.89543 20 8 20.8954 8 22V26Z" fill="white"/>
<path d="M38 8C36.8954 8 36 8.89543 36 10V26C36 27.1046 36.8954 28 38 28H54C55.1046 28 56 27.1046 56 26V22C56 20.8954 55.1046 20 54 20H44V10C44 8.89543 43.1046 8 42 8H38Z" fill="white"/>
</svg>
