<svg width="64" height="64" viewBox="0 0 64 64" fill="none" xmlns="http://www.w3.org/2000/svg">
<path d="M28 10V14C28 15.1046 27.1046 16 26 16H16V26C16 27.1046 15.1046 28 14 28H10C8.89543 28 8 27.1046 8 26V10C8 8.89543 8.89543 8 10 8H26C27.1046 8 28 8.89543 28 10Z" fill="white"/>
<path d="M54 28H50C48.8954 28 48 27.1046 48 26V16H38C36.8954 16 36 15.1046 36 14V10C36 8.89543 36.8954 8 38 8H54C55.1046 8 56 8.89543 56 10V26C56 27.1046 55.1046 28 54 28Z" fill="white"/>
<path d="M36 54V50C36 48.8954 36.8954 48 38 48H48V38C48 36.8954 48.8954 36 50 36H54C55.1046 36 56 36.8954 56 38V54C56 55.1046 55.1046 56 54 56H38C36.8954 56 36 55.1046 36 54Z" fill="white"/>
<path d="M10 36H14C15.1046 36 16 36.8954 16 38V48H26C27.1046 48 28 48.8954 28 50V54C28 55.1046 27.1046 56 26 56H10C8.89543 56 8 55.1046 8 54V38C8 36.8954 8.89543 36 10 36Z" fill="white"/>
</svg>
