<svg width="64" height="64" viewBox="0 0 64 64" fill="none" xmlns="http://www.w3.org/2000/svg">
<path d="M24.0548 46.6839C24.0548 46.8774 23.8323 47.0323 23.5516 47.0323C23.2323 47.0613 23.0097 46.9064 23.0097 46.6839C23.0097 46.4903 23.2323 46.3355 23.5129 46.3355C23.8032 46.3064 24.0548 46.4613 24.0548 46.6839ZM21.0452 46.2484C20.9774 46.4419 21.171 46.6645 21.4613 46.7226C21.7129 46.8194 22.0032 46.7226 22.0613 46.529C22.1194 46.3355 21.9355 46.1129 21.6452 46.0258C21.3935 45.9581 21.1129 46.0548 21.0452 46.2484ZM25.3226 46.0839C25.0419 46.1516 24.8484 46.3355 24.8774 46.5581C24.9065 46.7516 25.1581 46.8774 25.4484 46.8097C25.729 46.7419 25.9226 46.5581 25.8935 46.3645C25.8645 46.1806 25.6032 46.0548 25.3226 46.0839ZM31.6903 9C18.2677 9 8 19.1903 8 32.6129C8 43.3452 14.7548 52.529 24.4032 55.7613C25.6419 55.9839 26.0774 55.2194 26.0774 54.5903C26.0774 53.9903 26.0484 50.6806 26.0484 48.6484C26.0484 48.6484 19.2742 50.1 17.8516 45.7645C17.8516 45.7645 16.7484 42.9484 15.1613 42.2226C15.1613 42.2226 12.9452 40.7032 15.3161 40.7323C15.3161 40.7323 17.7258 40.9258 19.0516 43.229C21.171 46.9645 24.7226 45.8903 26.1065 45.2516C26.329 43.7032 26.9581 42.629 27.6548 41.9903C22.2452 41.3903 16.7871 40.6064 16.7871 31.2968C16.7871 28.6355 17.5226 27.3 19.071 25.5968C18.8194 24.9677 17.9968 22.3742 19.3226 19.0258C21.3452 18.3968 26 21.6387 26 21.6387C27.9355 21.0968 30.0161 20.8161 32.0774 20.8161C34.1387 20.8161 36.2194 21.0968 38.1548 21.6387C38.1548 21.6387 42.8097 18.3871 44.8323 19.0258C46.1581 22.3839 45.3355 24.9677 45.0839 25.5968C46.6323 27.3097 47.5806 28.6452 47.5806 31.2968C47.5806 40.6355 41.8806 41.3806 36.471 41.9903C37.3613 42.7548 38.1161 44.2064 38.1161 46.4806C38.1161 49.7419 38.0871 53.7774 38.0871 54.571C38.0871 55.2 38.5323 55.9645 39.7613 55.7419C49.4387 52.529 56 43.3452 56 32.6129C56 19.1903 45.1129 9 31.6903 9ZM17.4065 42.3774C17.2806 42.4742 17.3097 42.6968 17.4742 42.8806C17.629 43.0355 17.8516 43.1032 17.9774 42.9774C18.1032 42.8806 18.0742 42.6581 17.9097 42.4742C17.7548 42.3194 17.5323 42.2516 17.4065 42.3774ZM16.3613 41.5935C16.2935 41.7194 16.3903 41.8742 16.5839 41.971C16.7387 42.0677 16.9323 42.0387 17 41.9032C17.0677 41.7774 16.971 41.6226 16.7774 41.5258C16.5839 41.4677 16.429 41.4968 16.3613 41.5935ZM19.4968 45.0387C19.3419 45.1645 19.4 45.4548 19.6226 45.6387C19.8452 45.8613 20.1258 45.8903 20.2516 45.7355C20.3774 45.6097 20.3194 45.3194 20.1258 45.1355C19.9129 44.9129 19.6226 44.8839 19.4968 45.0387ZM18.3935 43.6161C18.2387 43.7129 18.2387 43.9645 18.3935 44.1871C18.5484 44.4097 18.8097 44.5064 18.9355 44.4097C19.0903 44.2839 19.0903 44.0323 18.9355 43.8097C18.8 43.5871 18.5484 43.4903 18.3935 43.6161Z" fill="white"/>
</svg>
