<svg width="64" height="64" viewBox="0 0 64 64" fill="none" xmlns="http://www.w3.org/2000/svg">
<path d="M10 32C8.89543 32 8 32.8954 8 34V54C8 55.1046 8.89543 56 10 56H54C55.1046 56 56 55.1046 56 54V34C56 32.8954 55.1046 32 54 32H50C48.8954 32 48 32.8954 48 34V48H16V34C16 32.8954 15.1046 32 14 32H10Z" fill="white"/>
<path d="M34.005 39.1997C33.0223 40.2668 30.9777 40.2668 29.995 39.1997L22.4633 31.0217C21.2984 29.7568 22.4642 28 24.4683 28H28V10C28 8.89543 28.8954 8 30 8H34C35.1046 8 36 8.89543 36 10V28H39.5317C41.5358 28 42.7016 29.7568 41.5367 31.0217L34.005 39.1997Z" fill="white"/>
</svg>
