<svg width="128" height="64" viewBox="0 0 128 64" fill="none" xmlns="http://www.w3.org/2000/svg">
<path d="M88 56C74.7452 56 64 45.2548 64 32C64 18.7452 74.7452 8 88 8C101.255 8 112 18.7452 112 32C112 45.2548 101.255 56 88 56ZM95.9418 41.0326C98.2393 39.0271 99.6892 36.2236 99.9981 33.1894L99.9983 33.185C100.015 33.0019 99.9032 32.8318 99.7288 32.7743C99.5544 32.7168 99.3633 32.7871 99.2677 32.9441C98.3395 34.5021 96.9578 35.7397 95.3073 36.4913C93.6565 37.2429 91.8159 37.4725 90.0312 37.1496C88.2466 36.8268 86.6029 35.9668 85.3203 34.6846C84.0376 33.4023 83.1771 31.7591 82.8536 29.9746C82.5302 28.1901 82.7593 26.3494 83.5103 24.6985C84.2613 23.0478 85.4984 21.6657 87.0562 20.7369C87.2181 20.6435 87.2924 20.4494 87.2342 20.2718C87.1759 20.0942 87.0011 19.9818 86.8153 20.0024C83.7812 20.3104 80.9772 21.7595 78.9707 24.0564C76.9643 26.3534 75.9053 29.3266 76.0078 32.3748C76.1104 35.4228 77.3668 38.3184 79.5232 40.4754C81.6793 42.6323 84.5744 43.8897 87.6224 43.9931C90.6705 44.0965 93.6442 43.0383 95.9418 41.0326Z" fill="white"/>
<path d="M40 16H62.6183C59.693 20.6308 58 26.1177 58 32C58 37.8823 59.693 43.3692 62.6183 48H40C31.1634 48 24 40.8366 24 32C24 23.1634 31.1634 16 40 16Z" fill="white"/>
</svg>
