<svg width="128" height="64" viewBox="0 0 128 64" fill="none" xmlns="http://www.w3.org/2000/svg">
<path d="M40 56C53.2548 56 64 45.2548 64 32C64 18.7452 53.2548 8 40 8C26.7452 8 16 18.7452 16 32C16 45.2548 26.7452 56 40 56ZM41.6355 21.2941C41.6355 22.2382 40.8936 22.98 39.9832 22.98C39.0727 22.98 38.3308 22.2382 38.3308 21.3276V17.6523C38.3308 16.7418 39.0727 16 39.9832 16C40.8936 16 41.6355 16.7418 41.6355 17.6523V21.2941ZM39.9832 25.1044C43.7935 25.1044 46.8957 28.2065 46.8957 32.0168C46.8957 35.8271 43.7935 38.9293 39.9832 38.9293C36.1729 38.9293 33.0706 35.8271 33.0706 32.0168C33.0706 28.2065 36.1729 25.1044 39.9832 25.1044ZM51.3127 23.0474L48.7165 25.6438C48.3792 25.9811 47.9747 26.1158 47.5362 26.1158C47.0977 26.1158 46.6932 25.9473 46.3559 25.6438C45.7152 25.0031 45.7152 23.9242 46.3559 23.2836L48.9524 20.687C49.5931 20.0464 50.672 20.0464 51.3127 20.687C51.9534 21.3278 51.9534 22.4067 51.3127 23.0474ZM50.706 33.6692C49.7618 33.6692 49.02 32.9274 49.02 32.0168C49.02 31.1063 49.7618 30.3645 50.6723 30.3645H54.3477C55.2582 30.3645 56 31.1063 56 32.0168C56 32.9274 55.2582 33.6692 54.3477 33.6692H50.706ZM46.3559 38.3898C47.0305 37.7491 48.0758 37.7491 48.7165 38.3898L51.313 40.9863C51.9537 41.627 51.9537 42.7059 51.313 43.3466C50.9757 43.6838 50.5712 43.8186 50.1327 43.8186C49.6942 43.8186 49.2897 43.65 48.9524 43.3466L46.3559 40.7501C45.7152 40.1094 45.7152 39.0305 46.3559 38.3898ZM38.3308 42.7059C38.3308 41.7955 39.0727 41.0537 39.9832 41.0537C40.8936 41.0537 41.6355 41.7955 41.6355 42.7059V46.3477C41.6355 47.2582 40.8936 48 39.9832 48C39.0727 48 38.3308 47.2582 38.3308 46.3477V42.7059ZM28.653 40.9863L31.2498 38.3898C31.8905 37.7491 32.9695 37.7491 33.6101 38.3898C34.2508 39.0305 34.2509 40.1095 33.6101 40.7501L31.0136 43.3466C30.6764 43.6838 30.2718 43.8186 29.8333 43.8186C29.3949 43.8186 28.9904 43.65 28.653 43.3466C28.0123 42.7058 28.0123 41.627 28.653 40.9863ZM24 32.0168C24 31.1064 24.7082 30.3646 25.6187 30.3646H29.294C30.2045 30.3646 30.9464 31.1064 30.9464 32.0168C30.9464 32.9274 30.2045 33.6692 29.294 33.6692H25.6523C24.7419 33.6692 24 32.9274 24 32.0168ZM33.61 25.6438C33.2729 25.9473 32.8347 26.116 32.4299 26.116C31.9915 26.1158 31.587 25.9473 31.2497 25.6438L28.6532 23.0474C28.0125 22.4066 28.0125 21.3278 28.6532 20.6871C29.294 20.0464 30.3729 20.0464 31.0135 20.6871L33.61 23.2836C34.2507 23.9243 34.2507 25.0032 33.61 25.6438Z" fill="white"/>
<path d="M70 32C70 37.8823 68.307 43.3692 65.3818 48H88C96.8366 48 104 40.8366 104 32C104 23.1634 96.8366 16 88 16H65.3818C68.307 20.6308 70 26.1177 70 32Z" fill="white"/>
</svg>
