<svg width="64" height="64" viewBox="0 0 64 64" fill="none" xmlns="http://www.w3.org/2000/svg">
<path d="M11.7394 31.8579C13.9617 31.8579 15.7115 33.6873 16.2598 35.8409C18.0323 42.8033 24.3437 47.9526 31.8579 47.9526C40.7468 47.9526 47.9526 40.7468 47.9526 31.8579C47.9526 24.3437 42.8033 18.0323 35.8409 16.2598C33.6873 15.7115 31.8579 13.9617 31.8579 11.7394C31.8579 9.51723 33.6729 7.68062 35.8647 8.04674C47.2911 9.95538 56 19.8896 56 31.8579C56 45.1912 45.1912 56 31.8579 56C19.8896 56 9.95538 47.2911 8.04674 35.8647C7.68062 33.6729 9.51723 31.8579 11.7394 31.8579Z" fill="white"/>
</svg>
