<svg width="48" height="48" viewBox="0 0 48 48" fill="none" xmlns="http://www.w3.org/2000/svg">
<g clip-path="url(#clip0_14_50)">
<path d="M20 2C20 0.895431 19.1046 0 18 0H2C0.895431 0 0 0.895431 0 2V18C0 19.1046 0.895431 20 2 20H6C7.10457 20 8 19.1046 8 18V8H18C19.1046 8 20 7.10457 20 6V2Z" fill="#A392AC"/>
<path d="M46 20C47.1046 20 48 19.1046 48 18V2C48 0.895431 47.1046 0 46 0H30C28.8954 0 28 0.895431 28 2V6C28 7.10457 28.8954 8 30 8H40V18C40 19.1046 40.8954 20 42 20H46Z" fill="#A392AC"/>
<path d="M28 46C28 47.1046 28.8954 48 30 48H46C47.1046 48 48 47.1046 48 46V30C48 28.8954 47.1046 28 46 28H42C40.8954 28 40 28.8954 40 30V40H30C28.8954 40 28 40.8954 28 42V46Z" fill="#A392AC"/>
<path d="M2 28C0.895431 28 0 28.8954 0 30V46C0 47.1046 0.895431 48 2 48H18C19.1046 48 20 47.1046 20 46V42C20 40.8954 19.1046 40 18 40H8V30C8 28.8954 7.10457 28 6 28H2Z" fill="#A392AC"/>
</g>
<defs>
<clipPath id="clip0_14_50">
<rect width="48" height="48" fill="white"/>
</clipPath>
</defs>
</svg>
