<svg width="48" height="48" viewBox="0 0 48 48" fill="none" xmlns="http://www.w3.org/2000/svg">
<g clip-path="url(#clip0_14_40)">
<path d="M48 30C48 28.8954 47.1046 28 46 28H30C28.8954 28 28 28.8954 28 30V46C28 47.1046 28.8954 48 30 48H34C35.1046 48 36 47.1046 36 46V36H46C47.1046 36 48 35.1046 48 34V30Z" fill="#2C2331"/>
<path d="M18 48C19.1046 48 20 47.1046 20 46V30C20 28.8954 19.1046 28 18 28H2C0.895431 28 0 28.8954 0 30V34C0 35.1046 0.895431 36 2 36H12V46C12 47.1046 12.8954 48 14 48H18Z" fill="#2C2331"/>
<path d="M0 18C0 19.1046 0.895431 20 2 20H18C19.1046 20 20 19.1046 20 18V2C20 0.895431 19.1046 0 18 0H14C12.8954 0 12 0.895431 12 2V12H2C0.895431 12 0 12.8954 0 14V18Z" fill="#2C2331"/>
<path d="M30 0C28.8954 0 28 0.895431 28 2V18C28 19.1046 28.8954 20 30 20H46C47.1046 20 48 19.1046 48 18V14C48 12.8954 47.1046 12 46 12H36V2C36 0.895431 35.1046 0 34 0H30Z" fill="#2C2331"/>
</g>
<defs>
<clipPath id="clip0_14_40">
<rect width="48" height="48" fill="white"/>
</clipPath>
</defs>
</svg>
