<svg width="96" height="48" viewBox="0 0 96 48" fill="none" xmlns="http://www.w3.org/2000/svg">
<g clip-path="url(#clip0_14_37)">
<path d="M40 24C40 32.8366 32.8366 40 24 40C15.1634 40 8 32.8366 8 24C8 15.1634 15.1634 8 24 8C32.8366 8 40 15.1634 40 24Z" fill="#666666"/>
<path d="M83.9972 25.1894C83.6883 28.2236 82.2383 31.0271 79.9408 33.0326C77.6432 35.0383 74.6695 36.0965 71.6214 35.9931C68.5734 35.8897 65.6783 34.6323 63.5222 32.4754C61.3659 30.3184 60.1095 27.4228 60.0068 24.3748C59.9043 21.3266 60.9633 18.3534 62.9697 16.0564C64.9762 13.7595 67.7802 12.3104 70.8143 12.0024C71.0002 11.9818 71.1749 12.0942 71.2332 12.2718C71.2915 12.4494 71.2171 12.6435 71.0552 12.7369C69.4974 13.6657 68.2603 15.0478 67.5093 16.6985C66.7584 18.3494 66.5292 20.1901 66.8526 21.9746C67.1761 23.7591 68.0367 25.4023 69.3193 26.6846C70.602 27.9668 72.2456 28.8268 74.0302 29.1496C75.8149 29.4725 77.6556 29.2429 79.3063 28.4913C80.9568 27.7397 82.3385 26.5021 83.2668 24.9441C83.3623 24.7871 83.5534 24.7168 83.7278 24.7743C83.9022 24.8318 84.0138 25.0019 83.9973 25.185L83.9972 25.1894Z" fill="#666666"/>
<path fill-rule="evenodd" clip-rule="evenodd" d="M72 48C85.2548 48 96 37.2549 96 24C96 10.7451 85.2548 0 72 0H24C10.7452 0 0 10.7451 0 24C0 37.2549 10.7452 48 24 48H72ZM92 24C92 35.0457 83.0457 44 72 44H24C12.9543 44 4 35.0457 4 24C4 12.9543 12.9543 4 24 4H72C83.0457 4 92 12.9543 92 24Z" fill="#666666"/>
</g>
<defs>
<clipPath id="clip0_14_37">
<rect width="96" height="48" fill="white"/>
</clipPath>
</defs>
</svg>
