<svg width="96" height="48" viewBox="0 0 96 48" fill="none" xmlns="http://www.w3.org/2000/svg">
<g clip-path="url(#clip0_14_36)">
<path d="M56 24C56 32.8365 63.1635 40 72 40C80.8365 40 88 32.8365 88 24C88 15.1635 80.8365 8 72 8C63.1635 8 56 15.1635 56 24Z" fill="#666666"/>
<path d="M30.8957 24.0168C30.8957 20.2065 27.7935 17.1044 23.9832 17.1044C20.1729 17.1044 17.0706 20.2065 17.0706 24.0168C17.0706 27.8271 20.1729 30.9293 23.9832 30.9293C27.7935 30.9293 30.8957 27.8271 30.8957 24.0168Z" fill="#666666"/>
<path d="M23.9832 14.98C23.0727 14.98 22.3308 14.2382 22.3308 13.3276V9.65234C22.3308 8.74182 23.0727 8 23.9832 8C24.8936 8 25.6355 8.74182 25.6355 9.65234V13.2941C25.6355 14.2382 24.8936 14.98 23.9832 14.98Z" fill="#666666"/>
<path d="M31.5362 18.1158C31.9747 18.1158 32.3792 17.9811 32.7165 17.6438L35.3127 15.0474C35.9534 14.4067 35.9534 13.3278 35.3127 12.687C34.672 12.0464 33.5931 12.0464 32.9524 12.687L30.3559 15.2836C29.7152 15.9242 29.7152 17.0031 30.3559 17.6438C30.6932 17.9473 31.0977 18.1158 31.5362 18.1158Z" fill="#666666"/>
<path d="M33.02 24.0168C33.02 23.1063 33.7618 22.3645 34.6723 22.3645H38.3477C39.2582 22.3645 40 23.1063 40 24.0168C40 24.9274 39.2582 25.6692 38.3477 25.6692H34.706C33.7618 25.6692 33.02 24.9274 33.02 24.0168Z" fill="#666666"/>
<path d="M35.313 32.9863L32.7165 30.3898C32.0758 29.7491 31.0305 29.7491 30.3559 30.3898C29.7152 31.0305 29.7152 32.1094 30.3559 32.7501L32.9524 35.3466C33.2897 35.65 33.6942 35.8186 34.1327 35.8186C34.5712 35.8186 34.9757 35.6838 35.313 35.3466C35.9537 34.7059 35.9537 33.627 35.313 32.9863Z" fill="#666666"/>
<path d="M23.9832 33.0537C24.8936 33.0537 25.6355 33.7955 25.6355 34.7059V38.3477C25.6355 39.2582 24.8936 40 23.9832 40C23.0727 40 22.3308 39.2582 22.3308 38.3477V34.7059C22.3308 33.7955 23.0727 33.0537 23.9832 33.0537Z" fill="#666666"/>
<path d="M17.6101 30.3898C16.9695 29.7491 15.8905 29.7491 15.2498 30.3898L12.653 32.9863C12.0123 33.627 12.0123 34.7058 12.653 35.3466C12.9904 35.65 13.3949 35.8186 13.8333 35.8186C14.2718 35.8186 14.6764 35.6838 15.0136 35.3466L17.6101 32.7501C18.2509 32.1095 18.2508 31.0305 17.6101 30.3898Z" fill="#666666"/>
<path d="M9.61868 22.3646H13.294C14.2045 22.3646 14.9464 23.1064 14.9464 24.0168C14.9464 24.9274 14.2045 25.6692 13.294 25.6692H9.65234C8.74185 25.6692 8 24.9274 8 24.0168C8 23.1064 8.70819 22.3646 9.61868 22.3646Z" fill="#666666"/>
<path d="M15.2497 17.6438C15.587 17.9473 15.9915 18.1158 16.4299 18.116C16.8347 18.116 17.2729 17.9473 17.61 17.6438C18.2507 17.0032 18.2507 15.9243 17.61 15.2836L15.0135 12.6871C14.3729 12.0464 13.294 12.0464 12.6532 12.6871C12.0125 13.3278 12.0125 14.4066 12.6532 15.0474L15.2497 17.6438Z" fill="#666666"/>
<path fill-rule="evenodd" clip-rule="evenodd" d="M0 24C0 37.2549 10.7452 48 24 48H72C85.2548 48 96 37.2549 96 24C96 10.7451 85.2548 0 72 0H24C10.7452 0 0 10.7451 0 24ZM24 44C12.9543 44 4 35.0458 4 24C4 12.9542 12.9543 4 24 4H72C83.0457 4 92 12.9542 92 24C92 35.0458 83.0457 44 72 44H24Z" fill="#666666"/>
</g>
<defs>
<clipPath id="clip0_14_36">
<rect width="96" height="48" fill="white"/>
</clipPath>
</defs>
</svg>
