<svg width="48" height="48" viewBox="0 0 48 48" fill="none" xmlns="http://www.w3.org/2000/svg">
<path d="M35.1997 11.3045C36.2667 10.4201 36.2667 8.57998 35.1997 7.69558L27.0217 0.917014C25.7568 -0.131448 24 0.917747 24 2.72146V5.50002C12.402 5.50002 3 14.902 3 26.5C3 38.098 12.402 47.5 24 47.5C35.598 47.5 45 38.098 45 26.5C45 25.0585 44.8547 23.6509 44.5781 22.2911C44.1376 20.1261 41.7542 19.1572 39.713 20.0027C37.6726 20.8479 36.7707 23.2032 36.9545 25.404C36.9846 25.7654 37 26.1309 37 26.5C37 33.6797 31.1797 39.5 24 39.5C16.8203 39.5 11 33.6797 11 26.5C11 19.3203 16.8203 13.5 24 13.5V16.2786C24 18.0823 25.7568 19.1315 27.0217 18.083L35.1997 11.3045Z" fill="#A392AC"/>
</svg>
