<svg width="48" height="48" viewBox="0 0 48 48" fill="none" xmlns="http://www.w3.org/2000/svg">
<g clip-path="url(#clip0_15_4)">
<path d="M3.73945 23.8579C1.51723 23.8579 -0.319382 25.6729 0.0467417 27.8647C1.95538 39.2911 11.8896 48 23.8579 48C37.1912 48 48 37.1912 48 23.8579C48 11.8896 39.2911 1.95538 27.8647 0.0467416C25.6729 -0.319382 23.8579 1.51723 23.8579 3.73945C23.8579 5.96167 25.6873 7.71152 27.8409 8.25977C34.8033 10.0323 39.9526 16.3437 39.9526 23.8579C39.9526 32.7468 32.7468 39.9526 23.8579 39.9526C16.3437 39.9526 10.0323 34.8033 8.25977 27.8409C7.71152 25.6873 5.96167 23.8579 3.73945 23.8579Z" fill="#666666"/>
</g>
<defs>
<clipPath id="clip0_15_4">
<rect width="48" height="48" fill="white"/>
</clipPath>
</defs>
</svg>
