<svg width="48" height="48" viewBox="0 0 48 48" fill="none" xmlns="http://www.w3.org/2000/svg">
<g clip-path="url(#clip0_10_287)">
<path d="M2 24C0.895432 24 0 24.8954 0 26V46C0 47.1046 0.895432 48 2 48H46C47.1046 48 48 47.1046 48 46V26C48 24.8954 47.1046 24 46 24H42C40.8954 24 40 24.8954 40 26V40H8V26C8 24.8954 7.10457 24 6 24H2Z" fill="#2C2331"/>
<path d="M26.005 31.1997C25.0223 32.2668 22.9777 32.2668 21.995 31.1997L14.4633 23.0217C13.2984 21.7568 14.4642 20 16.4683 20H20V2C20 0.895431 20.8954 0 22 0H26C27.1046 0 28 0.895431 28 2V20H31.5317C33.5358 20 34.7016 21.7568 33.5367 23.0217L26.005 31.1997Z" fill="#2C2331"/>
</g>
<defs>
<clipPath id="clip0_10_287">
<rect width="48" height="48" fill="white"/>
</clipPath>
</defs>
</svg>
