<svg width="512" height="512" viewBox="0 0 512 512" fill="none" xmlns="http://www.w3.org/2000/svg">
<g clip-path="url(#clip0_7_2)">
<path d="M368.884 219.533C373.981 185.469 348.042 167.157 312.574 154.941L324.079 108.797L295.988 101.797L284.787 146.725C277.402 144.885 269.817 143.149 262.281 141.429L273.562 96.2046L245.487 89.2046L233.974 135.333C227.861 133.941 221.86 132.565 216.036 131.117L216.068 130.973L177.328 121.301L169.855 151.301C169.855 151.301 190.697 156.077 190.257 156.373C201.634 159.213 203.69 166.741 203.346 172.709L190.241 225.277C191.025 225.477 192.041 225.765 193.161 226.213C192.225 225.981 191.225 225.725 190.193 225.477L171.823 299.117C170.431 302.573 166.902 307.757 158.95 305.789C159.23 306.197 138.531 300.693 138.531 300.693L124.586 332.845L161.142 341.957C167.943 343.661 174.607 345.445 181.168 347.125L169.543 393.797L197.602 400.797L209.115 354.621C216.78 356.701 224.221 358.621 231.501 360.429L220.028 406.389L248.119 413.389L259.744 366.805C307.645 375.869 343.665 372.213 358.827 328.893C371.044 294.013 358.219 273.893 333.016 260.773C351.37 256.541 365.196 244.469 368.884 219.533ZM304.701 309.525C296.02 344.405 237.286 325.549 218.244 320.821L233.67 258.989C252.712 263.741 313.774 273.149 304.701 309.525ZM313.39 219.029C305.469 250.757 256.584 234.637 240.726 230.685L254.712 174.605C270.569 178.557 321.639 185.933 313.39 219.029Z" fill="#E63973"/>
<path fill-rule="evenodd" clip-rule="evenodd" d="M256 512C397.385 512 512 397.385 512 256C512 114.615 397.385 0 256 0C114.615 0 0 114.615 0 256C0 397.385 114.615 512 256 512ZM256 477.867C378.534 477.867 477.867 378.534 477.867 256C477.867 133.466 378.534 34.1333 256 34.1333C133.466 34.1333 34.1333 133.466 34.1333 256C34.1333 378.534 133.466 477.867 256 477.867Z" fill="#009480"/>
</g>
<defs>
<clipPath id="clip0_7_2">
<rect width="512" height="512" fill="white"/>
</clipPath>
</defs>
</svg>
