<svg width="96" height="48" viewBox="0 0 96 48" fill="none" xmlns="http://www.w3.org/2000/svg">
<g clip-path="url(#clip0_10_277)">
<path fill-rule="evenodd" clip-rule="evenodd" d="M96 24C96 37.2549 85.2548 48 72 48H24C10.7452 48 0 37.2549 0 24C0 10.7451 10.7452 0 24 0H72C85.2548 0 96 10.7451 96 24ZM79.9408 33.0326C82.2383 31.0271 83.6883 28.2236 83.9972 25.1894L83.9973 25.185C84.0138 25.0019 83.9022 24.8318 83.7278 24.7743C83.5534 24.7168 83.3623 24.7871 83.2668 24.9441C82.3385 26.5021 80.9568 27.7397 79.3063 28.4913C77.6556 29.2429 75.8149 29.4725 74.0302 29.1496C72.2456 28.8268 70.602 27.9668 69.3193 26.6846C68.0367 25.4023 67.1761 23.7591 66.8526 21.9746C66.5292 20.1901 66.7584 18.3494 67.5093 16.6985C68.2603 15.0478 69.4974 13.6657 71.0552 12.7369C71.2171 12.6435 71.2915 12.4494 71.2332 12.2718C71.1749 12.0942 71.0002 11.9818 70.8143 12.0024C67.7802 12.3104 64.9762 13.7595 62.9697 16.0564C60.9633 18.3534 59.9043 21.3266 60.0068 24.3748C60.1095 27.4228 61.3659 30.3184 63.5222 32.4754C65.6783 34.6323 68.5734 35.8897 71.6214 35.9931C74.6695 36.0965 77.6432 35.0383 79.9408 33.0326Z" fill="#2C2331"/>
<circle cx="24" cy="24" r="18" fill="#9779A8"/>
</g>
<defs>
<clipPath id="clip0_10_277">
<rect width="96" height="48" fill="white"/>
</clipPath>
</defs>
</svg>
