<svg width="96" height="48" viewBox="0 0 96 48" fill="none" xmlns="http://www.w3.org/2000/svg">
<g clip-path="url(#clip0_10_261)">
<path fill-rule="evenodd" clip-rule="evenodd" d="M72 48C85.2548 48 96 37.2549 96 24C96 10.7451 85.2548 0 72 0H24C10.7452 0 0 10.7451 0 24C0 37.2549 10.7452 48 24 48H72ZM16.2424 24.0189C16.2424 19.7323 19.7323 16.2424 24.0189 16.2424C28.3055 16.2424 31.7955 19.7323 31.7955 24.0189C31.7955 28.3055 28.3055 31.7955 24.0189 31.7955C19.7324 31.7955 16.2424 28.3055 16.2424 24.0189ZM24.0189 13.8525C25.0432 13.8525 25.8778 13.0179 25.8778 11.9936V7.85886C25.8778 6.83456 25.0432 6 24.0189 6C22.9946 6 22.1601 6.83456 22.1601 7.85886V11.9558C22.1601 13.0179 22.9946 13.8525 24.0189 13.8525ZM15.5218 17.3804C15.0285 17.3804 14.5734 17.2288 14.1939 16.8493L11.2732 13.9283C10.5524 13.2075 10.5525 11.9938 11.2732 11.273C11.994 10.5521 13.2077 10.5521 13.9286 11.273L16.8496 14.194C17.5704 14.9147 17.5704 16.1285 16.8496 16.8493C16.4701 17.1907 16.015 17.3804 15.5218 17.3804ZM13.8525 24.0189C13.8525 22.9946 13.0179 22.1601 11.9936 22.1601H7.85886C6.83456 22.1601 6 22.9946 6 24.0189C6 25.0432 6.83456 25.8778 7.85886 25.8778H11.9558C13.0179 25.8778 13.8525 25.0432 13.8525 24.0189ZM11.2729 34.1096L14.1939 31.1885C14.9147 30.4677 16.0907 30.4677 16.8496 31.1885C17.5704 31.9093 17.5704 33.1231 16.8496 33.8439L13.9286 36.7649C13.5491 37.1063 13.094 37.296 12.6007 37.296C12.1074 37.296 11.6523 37.1444 11.2729 36.7649C10.5521 36.0442 10.5521 34.8304 11.2729 34.1096ZM24.0189 34.1854C22.9946 34.1854 22.1601 35.0199 22.1601 36.0442V40.1411C22.1601 41.1654 22.9946 42 24.0189 42C25.0432 42 25.8778 41.1654 25.8778 40.1411V36.0442C25.8778 35.0199 25.0432 34.1854 24.0189 34.1854ZM31.1886 31.1885C31.9094 30.4677 33.1231 30.4677 33.844 31.1885L36.7653 34.1096C37.4861 34.8303 37.4861 36.0441 36.7653 36.7649C36.3858 37.1063 35.9308 37.296 35.4375 37.296C34.9442 37.296 34.4891 37.1444 34.1096 36.7649L31.1886 33.8439C30.4678 33.1231 30.4679 31.9094 31.1886 31.1885ZM40.179 22.1601H36.0442C35.0199 22.1601 34.1854 22.9947 34.1854 24.019C34.1854 25.0433 35.0199 25.8779 36.0442 25.8779H40.1411C41.1654 25.8779 42 25.0433 42 24.019C42 22.9947 41.2033 22.1601 40.179 22.1601ZM33.8441 16.8493C33.4646 17.1907 33.0095 17.3804 32.5163 17.3804C32.0609 17.3804 31.5679 17.1907 31.1887 16.8493C30.4679 16.1286 30.4679 14.9148 31.1887 14.194L34.1098 11.273C34.8305 10.5521 36.0443 10.5521 36.7651 11.273C37.4859 11.9937 37.4859 13.2075 36.7651 13.9283L33.8441 16.8493Z" fill="#A392AC"/>
<circle cx="72" cy="24" r="18" fill="#43354B"/>
</g>
<defs>
<clipPath id="clip0_10_261">
<rect width="96" height="48" fill="white"/>
</clipPath>
</defs>
</svg>
